<?xml version="1.0" encoding="UTF-8"?>
<svg version="1.1" xmlns="http://www.w3.org/2000/svg" width="500" height="500">
<path d="M0 0 C6.02396227 4.79178817 11.36851771 9.67019479 13.75 17.1875 C13.88535156 18.87552734 13.88535156 18.87552734 14.0234375 20.59765625 C14.40857838 24.66731157 14.86166222 27.54411888 16.75 31.1875 C21.32445707 34.23440295 27.08572456 35.14694958 32.33984375 36.48925781 C47.96649622 41.0164282 62.84029953 51.96385641 74.46484375 63.0234375 C76.81600258 65.31907986 76.81600258 65.31907986 79.875 67.625 C84.41143717 71.66834617 88.01110121 76.41311846 91.75 81.1875 C92.49636719 82.11820312 93.24273437 83.04890625 94.01171875 84.0078125 C107.18012264 100.87623912 116.78016308 121.08468267 120.75 142.1875 C120.95238281 143.15042969 121.15476562 144.11335937 121.36328125 145.10546875 C124.70021426 163.74235311 123.71420562 183.73330114 119.75 202.1875 C119.52449463 203.24227539 119.52449463 203.24227539 119.29443359 204.31835938 C112.85581539 232.69374429 95.31430551 259.91002283 72.75 278.1875 C71.82832031 278.94675781 70.90664063 279.70601563 69.95703125 280.48828125 C38.74401337 305.69115406 0.75589368 314.86851334 -38.87890625 310.69140625 C-49.34887956 309.29972187 -60.74671371 306.93914314 -70.25 302.1875 C-70.36676661 293.20669112 -70.45515116 284.22615061 -70.50906086 275.24474335 C-70.53495819 271.07255399 -70.56998317 266.90089065 -70.62719727 262.72900391 C-70.68223871 258.68943755 -70.71156907 254.65037129 -70.72438622 250.61045837 C-70.73349882 249.08292281 -70.75128588 247.55540905 -70.77865028 246.02809143 C-71.08033008 228.46285922 -66.75865855 212.94800734 -54.375 199.875 C-42.37883437 188.573593 -30.31883221 186.19918116 -14.33007812 185.58203125 C-13.46447266 185.54464844 -12.59886719 185.50726563 -11.70703125 185.46875 C-10.92303955 185.43845703 -10.13904785 185.40816406 -9.33129883 185.37695312 C-7.05556653 185.24987 -7.05556653 185.24987 -4.25 184.1875 C-2.24430495 180.49279859 -1.81651074 177.34899693 -2.25 173.1875 C-3.91762322 169.69343231 -4.99006022 168.36079319 -8.25 166.1875 C-22.63922492 162.66536136 -40.85733912 165.99470844 -53.50390625 173.2265625 C-57.84149354 176.32395769 -61.34264349 180.07337589 -64.9375 183.9921875 C-67.25 186.1875 -67.25 186.1875 -70.25 186.1875 C-70.32526466 180.78388367 -70.37911695 175.38058547 -70.41479492 169.9765625 C-70.42969888 168.14577914 -70.45002914 166.31503027 -70.47631836 164.484375 C-70.78102697 142.68874722 -67.56880287 123.7530717 -55.25 105.1875 C-64.90653605 106.77719245 -73.46107318 113.03941907 -79.19921875 120.8359375 C-87.6303526 133.7389306 -89.55711274 144.97508645 -89.50878906 160.17089844 C-89.51150483 161.55178511 -89.51506903 162.93267033 -89.51940918 164.31355286 C-89.52846243 168.03435597 -89.52501927 171.75504715 -89.51865101 175.47585201 C-89.51355826 179.38211793 -89.51829114 183.28837479 -89.52142334 187.19464111 C-89.52505176 193.74777942 -89.52029168 200.30087248 -89.51074219 206.85400391 C-89.4998416 214.42152192 -89.50339935 221.9889323 -89.514395 229.55644774 C-89.52347829 236.06964975 -89.5247486 242.58281941 -89.51951766 249.09602571 C-89.51640603 252.97941748 -89.51596678 256.86275867 -89.52259064 260.74614716 C-89.5283793 264.39387737 -89.52433951 268.04146891 -89.51280212 271.68918419 C-89.50890928 273.66079392 -89.51482693 275.63241543 -89.52105713 277.60401917 C-89.51541748 278.78421127 -89.50977783 279.96440338 -89.50396729 281.18035889 C-89.50321323 282.20162243 -89.50245918 283.22288597 -89.50168228 284.27509689 C-89.22354977 287.49357533 -88.38093278 290.1714323 -87.25 293.1875 C-89.23 292.8575 -91.21 292.5275 -93.25 292.1875 C-93.25 291.5275 -93.25 290.8675 -93.25 290.1875 C-93.79527344 290.105 -94.34054688 290.0225 -94.90234375 289.9375 C-100.30427061 288.21175964 -104.81113927 283.67073511 -109.25 280.1875 C-110.72726563 279.04087891 -110.72726563 279.04087891 -112.234375 277.87109375 C-117.87567565 273.39077901 -122.74247371 268.79826699 -127.25 263.1875 C-127.89582031 262.41664063 -128.54164063 261.64578125 -129.20703125 260.8515625 C-148.13906446 237.90144958 -161.28055214 207.15608389 -162.25 177.1875 C-162.28996094 175.99253906 -162.32992187 174.79757812 -162.37109375 173.56640625 C-162.89117368 149.86897913 -157.95855085 127.35096477 -147.25 106.1875 C-146.93691895 105.56681641 -146.62383789 104.94613281 -146.30126953 104.30664062 C-136.91195888 86.07477643 -123.50702445 69.63267461 -107.25 57.1875 C-106.66911621 56.73697266 -106.08823242 56.28644531 -105.48974609 55.82226562 C-97.45740284 49.61651321 -89.55959291 44.34792497 -80.25 40.1875 C-79.32574219 39.74921875 -78.40148437 39.3109375 -77.44921875 38.859375 C-76.53785156 38.43140625 -75.62648438 38.0034375 -74.6875 37.5625 C-73.35332031 36.93408203 -73.35332031 36.93408203 -71.9921875 36.29296875 C-69.25 35.1875 -69.25 35.1875 -66.2578125 34.55078125 C-63.01902 33.80766308 -60.91208927 33.19985901 -58.25 31.1875 C-56.69365087 27.21213965 -55.90641954 23.35858989 -55.12109375 19.1796875 C-53.44061618 10.54126618 -47.30324399 4.11581023 -40.25 -0.8125 C-26.79560588 -8.1049146 -13.3124424 -7.42424672 0 0 Z M-34.25 24 C-35.97312658 27.76933939 -35.97785661 31.18486629 -34.55859375 35.08984375 C-32.92988327 38.31319128 -31.4875773 40.020116 -28.5 42.125 C-22.79836757 43.98899522 -18.37047717 43.94503494 -12.9375 41.5625 C-9.13441396 39.41390612 -7.46897741 37.49455351 -6.25 33.1875 C-5.97209671 29.2551684 -6.03835074 25.71743324 -8.55859375 22.53515625 C-12.78000096 18.90327224 -16.5409332 17.8311329 -22.0546875 17.90234375 C-26.81110125 18.52016973 -30.73641985 20.81581799 -34.25 24 Z M-8.25 63.1875 C-8.22679687 64.44304687 -8.20359375 65.69859375 -8.1796875 66.9921875 C-7.97635305 81.94474513 -10.08611714 92.19832533 -16.2734375 105.78125 C-20.65677647 115.46681486 -22.93349699 123.47938056 -22.25 134.1875 C-20.93 134.1875 -19.61 134.1875 -18.25 134.1875 C-16.10941258 132.0534017 -16.10941258 132.0534017 -14.1875 129.3125 C-11.93069514 126.2716612 -10.42274649 124.30266433 -7.25 122.1875 C-4.43503687 122.03533983 -2.90919465 122.59778803 -0.8046875 124.48046875 C7.95778096 134.87156355 10.6545102 149.04162235 11.75 162.1875 C15.32671292 159.0683623 16.8131489 156.1823776 18.4375 151.75 C18.85386719 150.63753906 19.27023437 149.52507812 19.69921875 148.37890625 C26.06725933 129.03805437 19.3587086 108.48575342 10.64697266 90.96972656 C5.56332718 81.11951157 0.00460317 71.6153989 -7.25 63.1875 C-7.58 63.1875 -7.91 63.1875 -8.25 63.1875 Z M37.75 144.1875 C36.34797282 148.0856218 35.86289707 152.09804331 35.4375 156.203125 C34.52990759 164.03110954 32.30571962 169.7102055 28.30859375 176.5078125 C26.64839879 179.15293681 26.64839879 179.15293681 25.75 182.1875 C25.09 182.1875 24.43 182.1875 23.75 182.1875 C22.62568397 183.34588621 21.50326157 184.50617233 20.390625 185.67578125 C17.18557581 188.62900514 13.42122143 190.8599936 9.75 193.1875 C14.03281364 194.64076935 16.33539468 193.50847179 20.2890625 191.63671875 C24.59301996 189.10216603 28.37873058 185.86959568 31.75 182.1875 C31.75 181.5275 31.75 180.8675 31.75 180.1875 C32.74 180.1875 33.73 180.1875 34.75 180.1875 C34.34890364 190.6160053 29.10440573 199.73082957 22.0234375 207.21875 C18.0245892 210.68167018 13.53515703 212.99125268 8.75 215.1875 C7.68378418 215.70143311 6.61756836 216.21536621 5.51904297 216.74487305 C1.84116141 218.3105935 -1.34671418 218.55616356 -5.36328125 218.55859375 C-6.70768476 218.5759818 -8.05208575 218.59356612 -9.39648438 218.61132812 C-11.47620504 218.62135146 -13.55575433 218.62500556 -15.63549805 218.62329102 C-29.53911859 218.64803349 -39.0055199 221.49590417 -49.23046875 231.03515625 C-53.00311087 234.94781396 -55.42589267 238.51333408 -56.30078125 243.94140625 C-56.21155608 247.88790429 -54.73884618 251.15285422 -52.25 254.1875 C-49.40637178 255.99133689 -48.29387585 256.18829774 -44.8125 256.125 C-40.53257461 254.99870385 -39.02781452 253.58260664 -36.25 250.1875 C-35.775625 249.32125 -35.30125 248.455 -34.8125 247.5625 C-32.62181537 244.23265936 -31.02535198 243.60275866 -27.25 242.1875 C-23.00431193 241.72720999 -18.7678903 241.67546492 -14.5 241.625 C-3.37848071 241.45360672 6.51868191 240.64051584 16.75 236.0625 C17.78072632 235.60290894 17.78072632 235.60290894 18.83227539 235.1340332 C24.90274691 232.3117026 29.90851178 228.83397206 34.75 224.1875 C35.51699219 223.46046875 36.28398437 222.7334375 37.07421875 221.984375 C52.47202687 206.19443255 56.93017023 186.08181146 56.99023438 164.66894531 C57.00001087 162.56015595 57.03114588 160.45231468 57.0625 158.34375 C57.0690257 156.98698486 57.07427787 155.63021288 57.078125 154.2734375 C57.0874707 153.0570459 57.09681641 151.8406543 57.10644531 150.58740234 C56.70846069 146.79128328 55.75773018 144.41786376 53.75 141.1875 C47.52101823 137.03484549 41.92490624 138.17072336 37.75 144.1875 Z M-26.25 262.1875 C-26.5276444 265.49188909 -26.48174988 268.81032134 -26.5 272.125 C-26.520625 273.05763672 -26.54125 273.99027344 -26.5625 274.95117188 C-26.56765625 275.84255859 -26.5728125 276.73394531 -26.578125 277.65234375 C-26.5874707 278.473396 -26.59681641 279.29444824 -26.60644531 280.14038086 C-26.48881836 280.81593018 -26.37119141 281.49147949 -26.25 282.1875 C-24.765 283.1775 -24.765 283.1775 -23.25 284.1875 C-21.7893715 281.54011084 -21.25 280.29301666 -21.25 277.1875 C-19.4246875 277.0946875 -19.4246875 277.0946875 -17.5625 277 C-13.09150148 276.47586874 -11.11698342 274.68163605 -8.25 271.1875 C-9.23122665 266.38136395 -9.23122665 266.38136395 -11.97265625 262.47265625 C-14.81408483 260.86917426 -16.69444938 260.85090319 -19.9375 260.9375 C-20.91074219 260.95296875 -21.88398438 260.9684375 -22.88671875 260.984375 C-25.2052942 260.92814205 -25.2052942 260.92814205 -26.25 262.1875 Z M10.75 260.1875 C9.43781002 262.23579656 8.22680706 264.33484069 7.00390625 266.4375 C6.59011719 267.015 6.17632812 267.5925 5.75 268.1875 C5.09 268.1875 4.43 268.1875 3.75 268.1875 C2.39547616 266.43511272 1.25058288 264.58967483 0.06640625 262.71875 C-0.36800781 262.2134375 -0.80242187 261.708125 -1.25 261.1875 C-2.24 261.1875 -3.23 261.1875 -4.25 261.1875 C-3.92702084 264.74027072 -2.95817425 266.68955466 -0.75 269.375 C2.51287937 273.62520598 2.63450398 277.96917962 2.75 283.1875 C4.07 283.1875 5.39 283.1875 6.75 283.1875 C6.7809375 281.3003125 6.7809375 281.3003125 6.8125 279.375 C7.46517265 272.97064957 11.08727207 268.30384319 14.75 263.1875 C13.77149805 262.16645449 12.77019573 261.1668879 11.75 260.1875 C11.42 260.1875 11.09 260.1875 10.75 260.1875 Z " fill="#F6F7F7" transform="translate(276.25,93.8125)"/>
<path d="M0 0 C9.70771676 9.70771676 9.2019413 33.81585357 9.3125 46.625 C9.28005415 57.97374639 8.3841488 68.90129316 6 80 C5.77449463 81.05477539 5.77449463 81.05477539 5.54443359 82.13085938 C-0.89418461 110.50624429 -18.43569449 137.72252283 -41 156 C-41.92167969 156.75925781 -42.84335937 157.51851562 -43.79296875 158.30078125 C-75.00598663 183.50365406 -112.99410632 192.68101334 -152.62890625 188.50390625 C-163.09887956 187.11222187 -174.49671371 184.75164314 -184 180 C-184.0464592 170.88093255 -184.081938 161.76190621 -184.10362434 152.64274597 C-184.11403573 148.40778404 -184.12814633 144.17290342 -184.15087891 139.93798828 C-184.17270199 135.84663093 -184.1845885 131.75535152 -184.18975449 127.66394043 C-184.19343331 126.10753148 -184.20061694 124.55112651 -184.21146011 122.99475098 C-184.31188082 107.97564041 -184.31188082 107.97564041 -182 101 C-181.67 101 -181.34 101 -181 101 C-181.33 124.43 -181.66 147.86 -182 172 C-148.41240668 180.39689833 -120.03359404 182.86740537 -87 172 C-85.86820312 171.63132812 -84.73640625 171.26265625 -83.5703125 170.8828125 C-49.53248477 158.81561196 -24.21335513 129.97663174 -8.6875 98.32421875 C-5.48192973 90.87377222 -3.83571227 82.87316595 -2 75 C-1.78214844 74.11699219 -1.56429687 73.23398437 -1.33984375 72.32421875 C0.90377788 62.96748557 1.19343707 53.52512898 1.1875 43.9375 C1.1884668 42.30953491 1.1884668 42.30953491 1.18945312 40.64868164 C1.13096264 31.65111736 0.3689526 22.88596909 -1 14 C-0.01 13.67 0.98 13.34 2 13 C1.39174965 8.65535464 0.73832608 4.32448133 0 0 Z " fill="#BEC0C6" transform="translate(390,216)"/>
<path d="M0 0 C9.70771676 9.70771676 9.2019413 33.81585357 9.3125 46.625 C9.28005415 57.97374639 8.3841488 68.90129316 6 80 C5.77449463 81.05477539 5.77449463 81.05477539 5.54443359 82.13085938 C2.55447764 95.30777847 -3.12888805 108.39403828 -10 120 C-10.99 120.495 -10.99 120.495 -12 121 C-12 119.02 -12 117.04 -12 115 C-11.01 115 -10.02 115 -9 115 C-9 114.01 -9 113.02 -9 112 C-10.32 112 -11.64 112 -13 112 C-14.46794711 107.59615866 -12.23318624 104.77096731 -10.3125 100.8125 C-6.37030526 92.35089112 -3.92692419 84.1044619 -2 75 C-1.78730469 74.12730469 -1.57460938 73.25460937 -1.35546875 72.35546875 C0.92238689 62.99823443 1.19344067 53.53093218 1.1875 43.9375 C1.18814453 42.85218994 1.18878906 41.76687988 1.18945312 40.64868164 C1.13096264 31.65111736 0.3689526 22.88596909 -1 14 C-0.01 13.67 0.98 13.34 2 13 C1.39174965 8.65535464 0.73832608 4.32448133 0 0 Z " fill="#BABCC3" transform="translate(390,216)"/>
<path d="M0 0 C0.33 0 0.66 0 1 0 C0.99723462 1.12037124 0.99723462 1.12037124 0.99441338 2.26337624 C0.9502358 20.44131882 0.91714413 38.61925067 0.89637566 56.79723549 C0.88606511 65.58798781 0.872009 74.37870428 0.84912109 83.16943359 C0.82918045 90.83184183 0.81628195 98.49422411 0.81182301 106.15665758 C0.80921678 110.21347605 0.80309558 114.27022026 0.78853989 118.32701492 C0.77494533 122.14695195 0.77078115 125.96678424 0.77378464 129.78674316 C0.77323531 131.18715357 0.769269 132.58756755 0.76158905 133.987957 C0.75159906 135.90386151 0.75523169 137.81982247 0.75949097 139.73574829 C0.75672559 141.34243346 0.75672559 141.34243346 0.75390434 142.98157692 C1.02049229 146.25134298 1.844583 148.94011734 3 152 C1.02 151.67 -0.96 151.34 -3 151 C-3 150.34 -3 149.68 -3 149 C-3.54527344 148.9175 -4.09054688 148.835 -4.65234375 148.75 C-10.05672236 147.02347639 -14.55634435 142.480101 -19 139 C-20.00804687 138.22398437 -21.01609375 137.44796875 -22.0546875 136.6484375 C-27.30520099 132.50778865 -31.48037203 128.70422464 -35 123 C-25.9671034 122.32253275 -20.34891037 126.12898097 -13.78515625 131.76953125 C-11.35860691 133.7128127 -8.9158149 135.42679592 -6.32592773 137.1394043 C-5.51574692 137.6761528 -4.7055661 138.21290131 -3.87083435 138.76591492 C-2.94477135 139.37678703 -2.94477135 139.37678703 -2 140 C-1.99576806 139.30277958 -1.99153612 138.60555916 -1.98717594 137.88721085 C-1.88390585 120.92832014 -1.77527353 103.9694723 -1.66066074 87.01065445 C-1.6053646 78.80952627 -1.55188852 70.60839375 -1.50268555 62.40722656 C-1.45979952 55.25973621 -1.41351037 48.11227742 -1.36312145 40.96483588 C-1.33655613 37.17975598 -1.31170395 33.3946822 -1.29092598 29.60956573 C-1.27131784 26.04734833 -1.24716164 22.4851908 -1.21950912 18.92302704 C-1.20570139 16.99151126 -1.19672324 15.05996286 -1.18788147 13.12841797 C-1.17319824 11.40368256 -1.17319824 11.40368256 -1.15821838 9.644104 C-1.15176583 8.64488041 -1.14531328 7.64565681 -1.1386652 6.61615372 C-1.01374118 4.25925061 -0.67080058 2.25453234 0 0 Z " fill="#C4C6C9" transform="translate(186,235)"/>
<path d="M0 0 C0.33 0 0.66 0 1 0 C0.67 23.43 0.34 46.86 0 71 C3.96 71.99 7.92 72.98 12 74 C12.66 75.65 13.32 77.3 14 79 C12.515 79.495 12.515 79.495 11 80 C10.34 79.67 9.68 79.34 9 79 C9 79.66 9 80.32 9 81 C4.65736138 81.16702456 1.79039366 81.12999997 -2 79 C-2.0464592 69.88093255 -2.081938 60.76190621 -2.10362434 51.64274597 C-2.11403573 47.40778404 -2.12814633 43.17290342 -2.15087891 38.93798828 C-2.17270199 34.84663093 -2.1845885 30.75535152 -2.18975449 26.66394043 C-2.19343331 25.10753148 -2.20061694 23.55112651 -2.21146011 21.99475098 C-2.31188082 6.97564041 -2.31188082 6.97564041 0 0 Z " fill="#85888C" transform="translate(208,317)"/>
<path d="M0 0 C2.59961015 10.39844059 -7.95290502 24.96903056 -13 34 C-13.5534764 31.92446352 -14 30.15634036 -14 28 C-13.01 28 -12.02 28 -11 28 C-11 27.01 -11 26.02 -11 25 C-12.32 25 -13.64 25 -15 25 C-16.13816623 21.5855013 -15.96305272 21.28854618 -14.453125 18.2421875 C-14.1025 17.53449219 -13.751875 16.82679688 -13.390625 16.09765625 C-13.01421875 15.36417969 -12.6378125 14.63070313 -12.25 13.875 C-11.8890625 13.13378906 -11.528125 12.39257812 -11.15625 11.62890625 C-10.80046875 10.92378906 -10.4446875 10.21867187 -10.078125 9.4921875 C-9.75231445 8.84620605 -9.42650391 8.20022461 -9.09082031 7.53466797 C-8 6 -8 6 -5 5 C-4.01 5.99 -3.02 6.98 -2 8 C-1.34 5.36 -0.68 2.72 0 0 Z " fill="#B0B3B7" transform="translate(392,303)"/>
<path d="M0 0 C7.23847684 6.05360712 10.4830595 20.07134144 12 29 C12.04125283 30.66615605 12.05422083 32.33421554 12 34 C10.35 34 8.7 34 7 34 C6.20348568 31.52229324 5.41146646 29.04340172 4.625 26.5625 C4.39385498 25.83345459 4.16270996 25.10440918 3.92456055 24.35327148 C2.70404084 20.44595847 1.6150089 16.58156898 0.8125 12.5625 C0.544375 11.386875 0.27625 10.21125 0 9 C-0.66 8.67 -1.32 8.34 -2 8 C-2 6.35 -2 4.7 -2 3 C-1.34 2.67 -0.68 2.34 0 2 C0 1.34 0 0.68 0 0 Z " fill="#DDDFE2" transform="translate(381,196)"/>
<path d="M0 0 C4.85232525 2.1228923 7.93657399 5.13929353 10 10 C10.72575658 16.27565982 9.77965505 21.9936642 8 28 C7.67 27.34 7.34 26.68 7 26 C6.34 25.67 5.68 25.34 5 25 C5.515625 24.195625 6.03125 23.39125 6.5625 22.5625 C8.37962606 18.05918759 8.46264393 14.63464281 7 10 C3.37820508 6.18758429 0.41508749 5.09279262 -4.8125 4.75 C-8.83185475 4.77960851 -11.49937258 5.99964148 -15 8 C-15.66 8 -16.32 8 -17 8 C-19.34402262 11.66253535 -19.2947685 14.72585673 -19 19 C-18.08885464 22.32186171 -18.08885464 22.32186171 -17 25 C-19 23.6875 -19 23.6875 -21 21 C-21.71044808 16.13903945 -21.66166201 11.63674287 -19.8125 7.0625 C-13.77219411 0.18904847 -8.83787657 -0.72902889 0 0 Z " fill="#818587" transform="translate(261,108)"/>
<path d="M0 0 C0.33 0 0.66 0 1 0 C0.99723462 1.12037124 0.99723462 1.12037124 0.99441338 2.26337624 C0.9502358 20.44131882 0.91714413 38.61925067 0.89637566 56.79723549 C0.88606511 65.58798781 0.872009 74.37870428 0.84912109 83.16943359 C0.82918045 90.83184183 0.81628195 98.49422411 0.81182301 106.15665758 C0.80921678 110.21347605 0.80309558 114.27022026 0.78853989 118.32701492 C0.77494533 122.14695195 0.77078115 125.96678424 0.77378464 129.78674316 C0.77323531 131.18715357 0.769269 132.58756755 0.76158905 133.987957 C0.75159906 135.90386151 0.75523169 137.81982247 0.75949097 139.73574829 C0.75764738 140.80687174 0.75580379 141.87799519 0.75390434 142.98157692 C1.02049229 146.25134298 1.844583 148.94011734 3 152 C1.02 151.67 -0.96 151.34 -3 151 C-2.505 150.01 -2.505 150.01 -2 149 C-1.89649817 147.09602464 -1.85776189 145.1884108 -1.84851074 143.28164673 C-1.84016708 142.0646257 -1.83182343 140.84760468 -1.82322693 139.59370422 C-1.81891719 138.23776271 -1.81469341 136.88182093 -1.81054688 135.52587891 C-1.80260684 134.1035182 -1.79421908 132.68115994 -1.78541565 131.25880432 C-1.76733843 128.1916741 -1.75232992 125.12454932 -1.73963928 122.05739212 C-1.71944257 117.20858568 -1.69178596 112.35983966 -1.66296387 107.51107788 C-1.60282674 97.21574688 -1.55102212 86.92037959 -1.5 76.625 C-1.44492995 65.51823831 -1.38842054 54.41149494 -1.32245111 43.30479181 C-1.29409978 38.48387251 -1.27050399 33.66296024 -1.25052643 28.84199929 C-1.23713542 25.8426637 -1.21972284 22.84336124 -1.20121574 19.84405327 C-1.1934624 18.45249075 -1.18739163 17.0609177 -1.18312263 15.66934013 C-1.17706939 13.77031398 -1.16444832 11.87131214 -1.15148926 9.97232056 C-1.14375866 8.37782798 -1.14375866 8.37782798 -1.13587189 6.75112343 C-1.01657112 4.33553076 -0.69538277 2.30606804 0 0 Z " fill="#394042" transform="translate(186,235)"/>
<path d="M0 0 C0.66 0 1.32 0 2 0 C2 0.66 2 1.32 2 2 C3.32 2 4.64 2 6 2 C6 2.99 6 3.98 6 5 C5.01 5 4.02 5 3 5 C3.20625 5.556875 3.4125 6.11375 3.625 6.6875 C4.12342848 9.7611423 3.49545142 11.29394506 2 14 C0 15.375 0 15.375 -2 16 C-2.66 15.67 -3.32 15.34 -4 15 C-3.67 16.32 -3.34 17.64 -3 19 C-4.32 18.67 -5.64 18.34 -7 18 C-7.33 18.66 -7.66 19.32 -8 20 C-8.99 20.33 -9.98 20.66 -11 21 C-11.33 20.34 -11.66 19.68 -12 19 C-10.65199436 16.64695476 -9.26358223 14.43027002 -7.75 12.1875 C-6.93165802 10.95224247 -6.11393825 9.71657248 -5.296875 8.48046875 C-4.90177734 7.89056152 -4.50667969 7.3006543 -4.09960938 6.69287109 C-3.11792656 5.18155035 -2.21687598 3.61855459 -1.328125 2.05078125 C-0.88984375 1.37402344 -0.4515625 0.69726562 0 0 Z M-13 20 C-13 20.99 -13 21.98 -13 23 C-13.66 22.67 -14.32 22.34 -15 22 C-14.34 21.34 -13.68 20.68 -13 20 Z " fill="#C6C8CD" transform="translate(375,326)"/>
<path d="M0 0 C0.33 1.32 0.66 2.64 1 4 C-1.31 5.32 -3.62 6.64 -6 8 C-5.01 9.485 -5.01 9.485 -4 11 C-4 12.32 -4 13.64 -4 15 C-9.75 18 -9.75 18 -12 18 C-12.33 18.66 -12.66 19.32 -13 20 C-15.88511836 20.93571406 -17.36622435 21.2877684 -20.16796875 20.015625 C-21.07482422 19.51289063 -21.07482422 19.51289063 -22 19 C-21.16597656 18.29875 -20.33195312 17.5975 -19.47265625 16.875 C-12.90058543 11.33810127 -6.38261225 5.7558958 0 0 Z " fill="#CBCCD0" transform="translate(355,354)"/>
<path d="M0 0 C6.77647059 2.44705882 6.77647059 2.44705882 9 5 C9.33937187 8.02741255 9.22891073 10.96693288 9 14 C3.32146365 12.58036591 -0.53174216 9.60636039 -5 6 C-4.67 5.34 -4.34 4.68 -4 4 C-3.01 4 -2.02 4 -1 4 C-0.67 2.68 -0.34 1.36 0 0 Z " fill="#B6B6BA" transform="translate(176,371)"/>
<path d="M0 0 C2.89188284 2.89188284 3.49896015 6.40486409 4.5625 10.25 C4.78574951 11.05034668 5.00899902 11.85069336 5.23901367 12.67529297 C7.12523847 19.78909544 7.86965748 26.6297227 8 34 C7.67 34 7.34 34 7 34 C6.34 30.37 5.68 26.74 5 23 C4.34 23.66 3.68 24.32 3 25 C2.01 24.67 1.02 24.34 0 24 C-0.33 20.7 -0.66 17.4 -1 14 C-0.01 13.67 0.98 13.34 2 13 C1.39174965 8.65535464 0.73832608 4.32448133 0 0 Z " fill="#90959C" transform="translate(390,216)"/>
<path d="M0 0 C1.32 0.33 2.64 0.66 4 1 C4.33 2.32 4.66 3.64 5 5 C5.66 5 6.32 5 7 5 C7.33 4.34 7.66 3.68 8 3 C10.85091869 4.27799804 13.22144171 5.37896673 15 8 C14.8125 11.125 14.8125 11.125 14 14 C13.01 14.495 13.01 14.495 12 15 C12.99 15.99 13.98 16.98 15 18 C14.67 18.66 14.34 19.32 14 20 C0 4.76595745 0 4.76595745 0 0 Z " fill="#B9BCBC" transform="translate(136,338)"/>
<path d="M0 0 C3.0625 0.1875 3.0625 0.1875 5.0625 2.1875 C5.3125 4.6875 5.3125 4.6875 5.0625 7.1875 C3.0625 9.1875 3.0625 9.1875 0 9.375 C-2.9375 9.1875 -2.9375 9.1875 -3.9375 8.1875 C-4.0625 4.6875 -4.0625 4.6875 -3.9375 1.1875 C-2.9375 0.1875 -2.9375 0.1875 0 0 Z " fill="#CBCDD1" transform="translate(230.9375,146.8125)"/>
<path d="M0 0 C1.32 0.33 2.64 0.66 4 1 C4.12375 2.175625 4.12375 2.175625 4.25 3.375 C4.70995268 6.11631339 4.70995268 6.11631339 6.875 7.125 C7.57625 7.41375 8.2775 7.7025 9 8 C10.02420222 8.97519732 11.02815265 9.97261851 12 11 C3.01529725 10.80809373 3.01529725 10.80809373 -1.0625 7.5625 C-3 5 -3 5 -4 3 C-3.34 2.34 -2.68 1.68 -2 1 C-1.67 1.33 -1.34 1.66 -1 2 C-0.67 1.34 -0.34 0.68 0 0 Z " fill="#E7E8EA" transform="translate(151,349)"/>
<path d="M0 0 C5.56818182 0.56818182 5.56818182 0.56818182 7 2 C6.71269945 4.33944736 6.38063221 6.6739143 6 9 C3.66705225 9.04241723 1.33297433 9.04092937 -1 9 C-2 8 -2 8 -2.1875 5.0625 C-2 2 -2 2 0 0 Z " fill="#CDCCCF" transform="translate(354,294)"/>
<path d="M0 0 C2.31 0 4.62 0 7 0 C7.625 3.375 7.625 3.375 8 7 C6 9 6 9 3.5 9.25 C1 9 1 9 -1 7 C-0.625 3.375 -0.625 3.375 0 0 Z " fill="#CBCCD0" transform="translate(230,233)"/>
<path d="M0 0 C1.27617187 0.02320312 2.55234375 0.04640625 3.8671875 0.0703125 C5.78917969 0.09738281 5.78917969 0.09738281 7.75 0.125 C9.23113281 0.15980469 9.23113281 0.15980469 10.7421875 0.1953125 C10.7421875 0.5253125 10.7421875 0.8553125 10.7421875 1.1953125 C10.07832031 1.31648438 9.41445313 1.43765625 8.73046875 1.5625 C0.74916765 2.59654505 0.74916765 2.59654505 -5.5703125 6.8828125 C-7.18890266 12.32716122 -6.28315493 17.00537253 -4.2578125 22.1953125 C-6.2578125 20.8828125 -6.2578125 20.8828125 -8.2578125 18.1953125 C-8.98487836 13.22065132 -8.95302185 8.74373333 -6.8828125 4.1328125 C-3.59747203 0.21567578 -3.59747203 0.21567578 0 0 Z " fill="#757B7F" transform="translate(248.2578125,110.8046875)"/>
<path d="M0 0 C2.33944736 0.28730055 4.6739143 0.61936779 7 1 C7.1875 3.375 7.1875 3.375 7 6 C4 8 4 8 1.3125 7.625 C0.549375 7.41875 -0.21375 7.2125 -1 7 C-1.04254356 5.00045254 -1.04080783 2.99958364 -1 1 C-0.67 0.67 -0.34 0.34 0 0 Z " fill="#B6B9BB" transform="translate(256,359)"/>
<path d="M0 0 C0.9384375 -0.00515625 1.876875 -0.0103125 2.84375 -0.015625 C5.54047676 0.25404768 7.18949293 0.8767741 9.5 2.25 C7.00789561 4.74210439 5.49639212 4.51015661 2.08984375 4.5234375 C1.05537109 4.51183594 1.05537109 4.51183594 0 4.5 C-0.68964844 4.50773437 -1.37929687 4.51546875 -2.08984375 4.5234375 C-7.24666707 4.50333293 -7.24666707 4.50333293 -9.5 2.25 C-6.2396882 0.31226752 -3.77138064 -0.02072187 0 0 Z " fill="#AFB3B7" transform="translate(255.5,107.75)"/>
<path d="M0 0 C2.67901932 2.31881505 3.66204403 4.31814468 4.6875 7.6875 C4.93886719 8.49574219 5.19023437 9.30398437 5.44921875 10.13671875 C5.63097656 10.75160156 5.81273437 11.36648437 6 12 C4.35 12 2.7 12 1 12 C0.67 11.01 0.34 10.02 0 9 C-0.66 8.67 -1.32 8.34 -2 8 C-2 6.35 -2 4.7 -2 3 C-1.34 2.67 -0.68 2.34 0 2 C0 1.34 0 0.68 0 0 Z " fill="#C7C9CA" transform="translate(381,196)"/>
<path d="M0 0 C1.98 0 3.96 0 6 0 C6.625 2.375 6.625 2.375 7 5 C5 7 5 7 2.375 7.125 C1.59125 7.08375 0.8075 7.0425 0 7 C-1.125 2.25 -1.125 2.25 0 0 Z " fill="#CCCDD3" transform="translate(325,340)"/>
<path d="M0 0 C2.0625 0.4375 2.0625 0.4375 4 1 C4.33 2.32 4.66 3.64 5 5 C4.01 5.33 3.02 5.66 2 6 C1.34 5.67 0.68 5.34 0 5 C0 5.66 0 6.32 0 7 C-2.31 7 -4.62 7 -7 7 C-7.66 5.68 -8.32 4.36 -9 3 C-7.68 3.33 -6.36 3.66 -5 4 C-4.67 3.34 -4.34 2.68 -4 2 C-3.01 1.67 -2.02 1.34 -1 1 C-0.67 0.67 -0.34 0.34 0 0 Z " fill="#CDD0D6" transform="translate(217,391)"/>
<path d="M0 0 C-0.75 2.875 -0.75 2.875 -2 6 C-3.33333333 6.66666667 -4.66666667 7.33333333 -6 8 C-7.12949221 10.80376352 -7.12949221 10.80376352 -8 14 C-8.97004121 16.01470098 -9.96244882 18.01922047 -11 20 C-12 17 -12 17 -10.6015625 13.8984375 C-9.95299053 12.71824916 -9.29367954 11.54391309 -8.625 10.375 C-8.13 9.4778125 -8.13 9.4778125 -7.625 8.5625 C-5.1932398 4.1932398 -5.1932398 4.1932398 -4 3 C-4.99 2.34 -5.98 1.68 -7 1 C-4.53721199 -0.231394 -2.7204945 -0.07159196 0 0 Z " fill="#707577" transform="translate(225,196)"/>
<path d="M0 0 C0 3 0 3 -1.75 4.82421875 C-2.4925 5.43910156 -3.235 6.05398438 -4 6.6875 C-4.7425 7.31011719 -5.485 7.93273437 -6.25 8.57421875 C-6.8275 9.04472656 -7.405 9.51523437 -8 10 C-8.433125 9.1028125 -8.433125 9.1028125 -8.875 8.1875 C-10.04742026 5.80672208 -10.04742026 5.80672208 -12 3 C-10.68 2.34 -9.36 1.68 -8 1 C-8 1.66 -8 2.32 -8 3 C-6.21858253 3.86358623 -6.21858253 3.86358623 -4 4 C-1.72855926 2.14567913 -1.72855926 2.14567913 0 0 Z " fill="#989B9F" transform="translate(360,359)"/>
<path d="M0 0 C0.66 0.33 1.32 0.66 2 1 C-1.96 4.3 -5.92 7.6 -10 11 C-10.66 10.67 -11.32 10.34 -12 10 C-11.8125 7.625 -11.8125 7.625 -11 5 C-8.8125 3.875 -8.8125 3.875 -6 3 C-4.948125 2.443125 -3.89625 1.88625 -2.8125 1.3125 C-1.884375 0.879375 -0.95625 0.44625 0 0 Z " fill="#9DA0A4" transform="translate(349,369)"/>
<path d="M0 0 C-0.75 2.4375 -0.75 2.4375 -2 5 C-3.9375 6 -3.9375 6 -6 6 C-7.75 4.75 -7.75 4.75 -9 3 C-9 2.01 -9 1.02 -9 0 C-5.93109813 -1.53445094 -3.29905734 -0.54984289 0 0 Z " fill="#D1D2D5" transform="translate(177,370)"/>
<path d="M0 0 C0 4.33021472 -2.22652099 5.94386639 -5.04296875 9.05859375 C-7.51834304 11.51420457 -9.99767954 13.24254412 -13 15 C-13.66 14.34 -14.32 13.68 -15 13 C-14.33613281 12.48050781 -13.67226563 11.96101563 -12.98828125 11.42578125 C-8.41377883 7.81292606 -3.98940601 4.25536641 0 0 Z " fill="#888E8E" transform="translate(316,312)"/>
<path d="M0 0 C2 2 2 2 2.046875 3.875 C1.94890625 4.57625 1.8509375 5.2775 1.75 6 C1.61851562 7.051875 1.61851562 7.051875 1.484375 8.125 C1 10 1 10 -1 12 C-0.67 9.69 -0.34 7.38 0 5 C-2.97 7.475 -2.97 7.475 -6 10 C-6.66 9.67 -7.32 9.34 -8 9 C-7.04882866 7.8274869 -6.08882991 6.66212985 -5.125 5.5 C-4.32449219 4.52546875 -4.32449219 4.52546875 -3.5078125 3.53125 C-2.76144531 2.77328125 -2.76144531 2.77328125 -2 2 C-1.34 2 -0.68 2 0 2 C0 1.34 0 0.68 0 0 Z " fill="#868B8C" transform="translate(310,272)"/>
<path d="M0 0 C0.763125 0.495 1.52625 0.99 2.3125 1.5 C4.92363751 3.24368308 4.92363751 3.24368308 8 3 C7.67 4.32 7.34 5.64 7 7 C6.34 7 5.68 7 5 7 C4.67 7.99 4.34 8.98 4 10 C3.32845067 8.71086513 2.66291141 7.41859796 2 6.125 C1.62875 5.40570313 1.2575 4.68640625 0.875 3.9453125 C0 2 0 2 0 0 Z " fill="#AAADB0" transform="translate(128,322)"/>
<path d="M0 0 C1.98 0.495 1.98 0.495 4 1 C4 3.97 4 6.94 4 10 C3.01 9.67 2.02 9.34 1 9 C1.04125 8.236875 1.0825 7.47375 1.125 6.6875 C1.22080824 3.77281584 1.22080824 3.77281584 -1 1 C-0.67 0.67 -0.34 0.34 0 0 Z " fill="#CECFD2" transform="translate(181,375)"/>
<path d="M0 0 C2.40921705 2.40921705 3.53812156 4.94334509 5 8 C5.66 7.34 6.32 6.68 7 6 C7 7.65 7 9.3 7 11 C5.35 11 3.7 11 2 11 C0.80712589 7.12315913 0 4.08378077 0 0 Z " fill="#CFD2D6" transform="translate(386,219)"/>
<path d="M0 0 C0.68707555 2.49064888 1 4.37886292 1 7 C-0.98 7.99 -2.96 8.98 -5 10 C-3.84414715 6.08788267 -2.64465038 3.1254959 0 0 Z " fill="#A7A9AE" transform="translate(138,185)"/>
<path d="M0 0 C0.99 0 1.98 0 3 0 C3.33 0.99 3.66 1.98 4 3 C2.0625 5.6875 2.0625 5.6875 0 8 C-2 5 -2 5 -2 2 C-1.34 2 -0.68 2 0 2 C0 1.34 0 0.68 0 0 Z " fill="#B3B8B7" transform="translate(305,284)"/>
<path d="M0 0 C0 3.61207397 -1.1151038 4.98416608 -3 8 C-3.33 8.99 -3.66 9.98 -4 11 C-6.0625 11.6875 -6.0625 11.6875 -8 12 C-6.49087042 7.01987239 -3.44338151 3.75740058 0 0 Z " fill="#AFB1B4" transform="translate(147,173)"/>
<path d="M0 0 C1.32 0 2.64 0 4 0 C3.46930939 3.82097239 2.50298434 6.06171403 0 9 C-1.125 2.25 -1.125 2.25 0 0 Z " fill="#8D9295" transform="translate(385,315)"/>
<path d="M0 0 C2.97 0.495 2.97 0.495 6 1 C6 3.97 6 6.94 6 10 C5.34 10 4.68 10 4 10 C3.566875 8.3603125 3.566875 8.3603125 3.125 6.6875 C2.18106796 2.95986155 2.18106796 2.95986155 0 0 Z " fill="#86898A" transform="translate(263,355)"/>
<path d="M0 0 C0.33 0.99 0.66 1.98 1 3 C-0.40453643 3.89434157 -1.82421869 4.76493192 -3.25 5.625 C-4.03890625 6.11226562 -4.8278125 6.59953125 -5.640625 7.1015625 C-8 8 -8 8 -10.296875 7.1484375 C-10.85890625 6.76945313 -11.4209375 6.39046875 -12 6 C-11.21753906 5.73445312 -10.43507812 5.46890625 -9.62890625 5.1953125 C-8.61699219 4.84210938 -7.60507813 4.48890625 -6.5625 4.125 C-5.55316406 3.77695313 -4.54382813 3.42890625 -3.50390625 3.0703125 C-0.86028249 2.25944907 -0.86028249 2.25944907 0 0 Z " fill="#767D7D" transform="translate(219,123)"/>
<path d="M0 0 C-1.59766103 0.86627399 -3.20339944 1.71766465 -4.8125 2.5625 C-5.70582031 3.03816406 -6.59914063 3.51382812 -7.51953125 4.00390625 C-10 5 -10 5 -13 4 C-12.34 3.67 -11.68 3.34 -11 3 C-10.34 2.01 -9.68 1.02 -9 0 C-2.7 -1.35 -2.7 -1.35 0 0 Z " fill="#7A7E81" transform="translate(322,390)"/>
<path d="M0 0 C0.66 0.33 1.32 0.66 2 1 C4.09821215 0.60061233 4.09821215 0.60061233 6 0 C5.375 1.9375 5.375 1.9375 4 4 C0.875 4.75 0.875 4.75 -2 5 C-2.33 4.34 -2.66 3.68 -3 3 C-2.01 2.01 -1.02 1.02 0 0 Z " fill="#CFD0D5" transform="translate(344,367)"/>
<path d="M0 0 C-1 3 -1 3 -2.70703125 3.984375 C-3.40183594 4.23703125 -4.09664063 4.4896875 -4.8125 4.75 C-5.49957031 5.01296875 -6.18664062 5.2759375 -6.89453125 5.546875 C-9.28143969 6.06056958 -10.70637773 5.76282269 -13 5 C-11.21046815 4.16209211 -9.41830305 3.32980604 -7.625 2.5 C-6.62726563 2.0359375 -5.62953125 1.571875 -4.6015625 1.09375 C-2 0 -2 0 0 0 Z " fill="#75797A" transform="translate(301,326)"/>
<path d="M0 0 C0.125 2.375 0.125 2.375 0 5 C-2 7 -2 7 -5.125 7.125 C-6.548125 7.063125 -6.548125 7.063125 -8 7 C-7.01 6.67 -6.02 6.34 -5 6 C-5 5.34 -5 4.68 -5 4 C-1.35294118 0 -1.35294118 0 0 0 Z " fill="#D0D4D7" transform="translate(236,149)"/>
<path d="M0 0 C0.66 0.33 1.32 0.66 2 1 C-1.06093224 4.93548431 -3.49115974 7.68116787 -8 10 C-6.34908222 5.70761377 -3.26245434 3.1206085 0 0 Z " fill="#848889" transform="translate(226,290)"/>
<path d="M0 0 C1.98 0.495 1.98 0.495 4 1 C3.67 2.32 3.34 3.64 3 5 C1.68 4.67 0.36 4.34 -1 4 C-0.67 2.68 -0.34 1.36 0 0 Z " fill="#CECFD1" transform="translate(357,219)"/>
<path d="M0 0 C-4.30769231 3.93846154 -4.30769231 3.93846154 -7.8125 4.25 C-8.534375 4.1675 -9.25625 4.085 -10 4 C-6.87839899 0.56623888 -4.64008112 -1.54669371 0 0 Z " fill="#919A9A" transform="translate(207,131)"/>
<path d="M0 0 C0 0.33 0 0.66 0 1 C-1.62324086 1.22162329 -3.248721 1.42689803 -4.875 1.625 C-6.23238281 1.79902344 -6.23238281 1.79902344 -7.6171875 1.9765625 C-8.40351563 1.98429687 -9.18984375 1.99203125 -10 2 C-10.66 1.34 -11.32 0.68 -12 0 C-7.89962722 -3.07527959 -4.53236941 -1.35971082 0 0 Z " fill="#B9BDC1" transform="translate(258,110)"/>
<path d="M0 0 C0.66 0.33 1.32 0.66 2 1 C-0.64 2.98 -3.28 4.96 -6 7 C-6 5.68 -6 4.36 -6 3 C-4.03533587 1.93224776 -2.03144641 0.93446535 0 0 Z " fill="#767D81" transform="translate(349,369)"/>
<path d="M0 0 C-2.52788007 2.79872437 -4.20411134 4.45773019 -8 5 C-7.625 3.0625 -7.625 3.0625 -7 1 C-4.53721199 -0.231394 -2.7204945 -0.07159196 0 0 Z " fill="#999C9D" transform="translate(297,302)"/>
<path d="M0 0 C1.65 0 3.3 0 5 0 C4.67 1.32 4.34 2.64 4 4 C2.68 3.67 1.36 3.34 0 3 C0 2.01 0 1.02 0 0 Z " fill="#D0D4D6" transform="translate(331,173)"/>
<path d="M0 0 C0.33 1.32 0.66 2.64 1 4 C-0.98 4.33 -2.96 4.66 -5 5 C-5 4.34 -5 3.68 -5 3 C-2.5 1.375 -2.5 1.375 0 0 Z " fill="#CCCDD2" transform="translate(326,377)"/>
<path d="M0 0 C0.33 1.65 0.66 3.3 1 5 C-0.65 4.67 -2.3 4.34 -4 4 C-4 3.01 -4 2.02 -4 1 C-2 0 -2 0 0 0 Z " fill="#D8D9DB" transform="translate(172,369)"/>
</svg>
